<svg xmlns="http://www.w3.org/2000/svg" width="1024" height="1024" viewBox="0 0 1024 1024">
  <rect width="1024" height="1024" fill="#faf8f3"/>
  <g transform="translate(122.88,168.66) scale(2.288941)">
    <defs/><rect fill="#faf8f3" width="100%" height="100%" x="0" y="0"/><g><g data-cell-id="0"><g data-cell-id="1"><g data-cell-id="YwZvd4l_mc1pamOOd51c-3"><g transform="translate(0.5,0.5)"><path d="M -1 150 C -1 67.16 66.16 0 149 0 C 188.78 0 226.94 15.8 255.07 43.93 C 283.2 72.06 299 110.22 299 150 C 299 189.78 283.2 227.94 255.07 256.07 C 226.94 284.2 188.78 300 149 300 C 109.22 300 71.06 284.2 42.93 256.07 C 14.8 227.94 -1 189.78 -1 150 Z M 149 27.87 C 81.55 27.87 26.87 82.55 26.87 150 C 26.87 217.45 81.55 272.13 149 272.13 C 216.45 272.13 271.13 217.45 271.13 150 C 271.13 82.55 216.45 27.87 149 27.87 Z" fill="#000000" stroke="none" pointer-events="all"/></g></g><g data-cell-id="YwZvd4l_mc1pamOOd51c-4"><g transform="translate(0.5,0.5)"><path d="M 64 190 C 64 156.86 90.86 130 124 130 C 139.91 130 155.17 136.32 166.43 147.57 C 177.68 158.83 184 174.09 184 190 C 184 205.91 177.68 221.17 166.43 232.43 C 155.17 243.68 139.91 250 124 250 C 90.86 250 64 223.14 64 190 Z M 124 162.43 C 108.77 162.43 96.43 174.77 96.43 190 C 96.43 205.23 108.77 217.57 124 217.57 C 131.31 217.57 138.32 214.67 143.49 209.49 C 148.67 204.32 151.57 197.31 151.57 190 C 151.57 174.77 139.23 162.43 124 162.43 Z" fill="#000000" stroke="none" pointer-events="all"/></g></g><g data-cell-id="YwZvd4l_mc1pamOOd51c-8"><g transform="translate(0.5,0.5)"><path d="M 289 140 L 324 140 Q 339 140 339 155 Q 339 170 324 170 L 289 170 Z" fill="#000000" stroke="none" pointer-events="all"/></g></g><g data-cell-id="YwZvd4l_mc1pamOOd51c-9"><g transform="translate(0.5,0.5)"><path d="M 249 70 L 389 70 Q 399 70 399 80 Q 399 90 389 90 L 249 90 Z" fill="#000000" stroke="none" transform="rotate(-90,324,80)" pointer-events="all"/></g></g><g data-cell-id="YwZvd4l_mc1pamOOd51c-11"><g transform="translate(0.5,0.5)"/><g data-cell-id="YwZvd4l_mc1pamOOd51c-5"><g transform="translate(0.5,0.5)"><ellipse cx="184" cy="91" rx="25" ry="25" fill="#000000" stroke="none" transform="rotate(45,184,91)" pointer-events="all"/></g></g><g data-cell-id="YwZvd4l_mc1pamOOd51c-7"><g transform="translate(0.5,0.5)"><ellipse cx="233" cy="140" rx="25" ry="25" fill="#000000" stroke="none" transform="rotate(45,233,140)" pointer-events="all"/></g></g><g data-cell-id="YwZvd4l_mc1pamOOd51c-10"><g transform="translate(0.5,0.5)"><path d="M 171 87 Q 206 112 241 87 Q 206 112 241 137 Q 206 112 171 137 Q 206 112 171 87" fill="#000000" stroke="none" transform="rotate(45,206,112)" pointer-events="all"/></g></g><g data-cell-id="YwZvd4l_mc1pamOOd51c-12"><g transform="translate(0.5,0.5)"><path d="M 114 69.99 Q 149 83.24 184 69.99 Q 149 83.24 184 96.49 Q 149 83.24 114 96.49 Q 149 83.24 114 69.99" fill="#000000" stroke="none" pointer-events="all"/></g></g><g data-cell-id="YwZvd4l_mc1pamOOd51c-6"><g transform="translate(0.5,0.5)"><ellipse cx="119" cy="86" rx="20" ry="20" fill="#000000" stroke="none" pointer-events="all"/></g></g></g><g data-cell-id="YwZvd4l_mc1pamOOd51c-13"><g transform="translate(0.5,0.5)"><path d="M 304 120 L 329 120 Q 344 120 344 135 Q 344 150 329 150 L 304 150 Z" fill="#000000" stroke="none" transform="rotate(-90,324,135)" pointer-events="all"/></g></g></g></g></g>
  </g>
</svg>